<?xml version="1.0" encoding="UTF-8"?>
<!DOCTYPE svg PUBLIC "-//W3C//DTD SVG 1.1//EN" "http://www.w3.org/Graphics/SVG/1.1/DTD/svg11.dtd">
<!-- Creator: CorelDRAW 2018 -->
<svg xmlns="http://www.w3.org/2000/svg" xml:space="preserve" width="57.5043mm" height="43.2299mm" version="1.1" style="shape-rendering:geometricPrecision; text-rendering:geometricPrecision; image-rendering:optimizeQuality; fill-rule:evenodd; clip-rule:evenodd"
viewBox="0 0 2644.62 1988.14"
 xmlns:xlink="http://www.w3.org/1999/xlink">
 <defs>
  <style type="text/css">
   <![CDATA[
    .fil0 {fill:#FE7B23}
   ]]>
  </style>
 </defs>
 <g id="Layer_x0020_1">
  <metadata id="CorelCorpID_0Corel-Layer"/>
  <path class="fil0" d="M1350.44 1781.83l-0.89 -489.85c11.1,-168.47 -0.42,25.48 38.42,-91.6l0 -881.53c312.36,-209.17 474.74,-246.07 844.27,-206.55 91.16,9.75 127.78,31.24 206.07,37.75l0 1519.25c-215.13,-17.9 -111.2,-37.5 -468.91,-37.5 -260.14,0 -467.27,114.71 -618.96,150.04zm-1144.11 -112.54l0 -1462.98c0,-113.22 530.52,-181.37 907.07,11.96 65.71,33.74 88.86,67.3 143.26,81.83l0 937.8c77.03,-16.33 56.73,-55.14 56.27,225.05 -0.16,106.29 0,212.58 0,318.87 -119.1,-27.76 -198.36,-69.85 -332.69,-98.71 -225.01,-48.36 -251.3,-51.33 -492.57,-51.33 -125.68,0 -174.41,35.11 -281.34,37.5zm-75.03 -1425.45c-53.9,25.85 -131.3,24.3 -131.3,93.77l0 1594.26 1144.13 0c87.66,0 -11.1,56.27 225.07,56.27 90.12,0 97.43,-56.27 187.57,-56.27l1087.84 0 0 -1575.52c0,-64.78 -59.08,-81.32 -112.54,-93.77l0 -168.81c-314.9,-151.1 -755.02,-98.58 -1050.8,55.8 -65.49,34.16 -83.38,59.21 -149.58,94.26 -220.84,-116.86 -354.05,-243.84 -712.75,-243.84 -79.11,0 -419.62,49.27 -460.81,83.12 -44.17,36.33 -26.85,88.15 -26.85,160.72z"/>
 </g>
</svg>
