<?xml version="1.0" encoding="UTF-8"?>
<!DOCTYPE svg PUBLIC "-//W3C//DTD SVG 1.1//EN" "http://www.w3.org/Graphics/SVG/1.1/DTD/svg11.dtd">
<!-- Creator: CorelDRAW 2018 -->
<svg xmlns="http://www.w3.org/2000/svg" xml:space="preserve" width="270.113mm" height="43.2299mm" version="1.1" style="shape-rendering:geometricPrecision; text-rendering:geometricPrecision; image-rendering:optimizeQuality; fill-rule:evenodd; clip-rule:evenodd"
viewBox="0 0 58351.65 9338.82"
 xmlns:xlink="http://www.w3.org/1999/xlink">
 <defs>
  <style type="text/css">
   <![CDATA[
    .fil0 {fill:url(#id0)}
    .fil1 {fill:url(#id1);fill-rule:nonzero}
   ]]>
  </style>
  <linearGradient id="id0" gradientUnits="userSpaceOnUse" x1="-0" y1="4669.4" x2="12422.47" y2="4669.4">
   <stop offset="0" style="stop-opacity:1; stop-color:#FE7B23"/>
   <stop offset="1" style="stop-opacity:1; stop-color:#FF9500"/>
  </linearGradient>
  <linearGradient id="id1" gradientUnits="userSpaceOnUse" xlink:href="#id0" x1="15334.9" y1="4679.55" x2="58351.65" y2="4679.55">
  </linearGradient>
 </defs>
 <g id="Layer_x0020_1">
  <metadata id="CorelCorpID_0Corel-Layer"/>
  <g id="_645819888">
   <path class="fil0" d="M6343.39 8369.72l-4.17 -2300.94c52.15,-791.35 -1.97,119.68 180.45,-430.28l0 -4140.78c1467.23,-982.51 2229.98,-1155.87 3965.76,-970.24 428.21,45.78 600.21,146.73 967.95,177.31l0 7136.32c-1010.51,-84.08 -522.35,-176.17 -2202.59,-176.17 -1221.96,0 -2194.9,538.81 -2907.4,704.79zm-5374.19 -528.62l0 -6872.01c0,-531.84 2491.98,-851.92 4260.76,56.19 308.64,158.48 417.39,316.13 672.95,384.4l0 4405.09c361.82,-76.69 266.49,-258.99 264.31,1057.13 -0.73,499.28 0,998.54 0,1497.82 -559.42,-130.39 -931.75,-328.1 -1562.74,-463.68 -1056.93,-227.17 -1180.44,-241.11 -2313.73,-241.11 -590.34,0 -819.26,164.94 -1321.54,176.17zm-352.45 -6695.73c-253.18,121.43 -616.76,114.15 -616.76,440.48l0 7488.66 5374.29 0c411.77,0 -52.13,264.31 1057.24,264.31 423.3,0 457.65,-264.31 881.07,-264.31l5109.88 0 0 -7400.62c0,-304.27 -277.51,-382 -528.62,-440.48l0 -792.93c-1479.18,-709.78 -3546.51,-463.05 -4935.89,262.13 -307.6,160.44 -391.68,278.13 -702.61,442.77 -1037.36,-548.9 -1663.06,-1145.37 -3347.96,-1145.37 -371.61,0 -1971.07,231.43 -2164.52,390.43 -207.49,170.66 -126.12,414.06 -126.12,754.95z"/>
   <path class="fil1" d="M21089.81 636.22l0 5144.64 -4503.83 -4002.87 -1251.08 -1107.09 0 8051.97 1251.08 0 0 -5109.98 4503.83 4002.89 1251.08 1107.09 0 -8075.08 -1251.08 -11.56zm5514.71 0c-1931.65,0 -3502.98,1813.72 -3502.98,4043.33 0,2229.59 1571.34,4043.31 3502.98,4043.31 1931.65,0 3503,-1813.72 3503,-4043.31 0,-2229.61 -1571.36,-4043.33 -3503,-4043.33zm0 6642.61c-1241.05,0 -2251.93,-1166.8 -2251.93,-2599.28 0,-1432.5 1010.88,-2599.28 2251.93,-2599.28 1241.05,0 2251.93,1166.78 2251.93,2599.28 0,1432.47 -1010.88,2599.28 -2251.93,2599.28zm3603.07 -6642.61l0 1444.05 2872.44 0 0 6642.59 1251.08 0 0 -6642.59 2872.47 0 0 -1444.05 -6995.98 0zm12130.36 6642.61l-2932.5 -6642.61 -2932.5 6642.61 -640.54 1444.03 1401.19 0 640.54 -1444.03 1531.31 -3465.72 1531.31 3465.72 640.54 1444.03 1401.21 0 -640.56 -1444.03zm4744.08 -6642.61l-3503 0 0 8086.64 3503 0c960.8,0 1831.54,-450.55 2462.1,-1189.9 70.06,-80.86 140.11,-161.72 200.17,-242.6 520.45,-704.68 830.69,-1617.33 830.69,-2610.81 0,-2241.17 -1571.34,-4043.33 -3502.98,-4043.33l10.02 0zm-10.02 6654.14l-2251.93 0 0 -5210.09 2251.93 0c1241.07,0 2251.93,1168.7 2251.93,2605.05 0,1436.34 -1010.85,2605.05 -2251.93,2605.05zm7776.64 -6654.14c-1931.65,0 -3502.98,1813.72 -3502.98,4043.33 0,2229.59 1571.34,4043.31 3502.98,4043.31 1931.65,0 3503,-1813.72 3503,-4043.31 0,-2229.61 -1571.36,-4043.33 -3503,-4043.33zm0 6642.61c-1241.05,0 -2251.93,-1166.8 -2251.93,-2599.28 0,-1432.5 1010.88,-2599.28 2251.93,-2599.28 1241.05,0 2251.93,1166.78 2251.93,2599.28 0,1432.47 -1010.88,2599.28 -2251.93,2599.28z"/>
  </g>
 </g>
</svg>
